#Comment line ignore any data following # character 
#Hierarchical Translation and Rotation (.htr) file 
[Header]	
#Header keywords are followed by a single value 
FileType HTR		#Single word string
DataType HTRS		#Translation followed by rotation and scale data
FileVersion 1		#integer
NumSegments 64		#integer
NumFrames 3		#integer
DataFrameRate 30		#integer, data frame rate in this file
EulerRotationOrder ZYX
CalibrationUnits mm
RotationUnits Degrees
GlobalAxisofGravity Y
BoneLengthAxis Y
ScaleFactor 1.00
[SegmentNames&Hierarchy]
#CHILD	PARENT
Pinger_Root GLOBAL
Pelvis Pinger_Root
L_Hip Pelvis
R_Hip Pelvis
Rear_Leg01 Pelvis
Spine1 Pelvis
L_Leg01 L_Hip
L_Leg02 L_Leg01
L_Leg03 L_Leg02
L_Foot L_Leg03
L_Toe1_01 L_Foot
L_Toe2_01 L_Foot
L_Toe3_01 L_Foot
planeAlignerLeft L_Foot
L_Toe1_02 L_Toe1_01
L_Toe1_03 L_Toe1_02
L_Toe2_02 L_Toe2_01
L_Toe2_03 L_Toe2_02
L_Toe3_02 L_Toe3_01
L_Toe3_03 L_Toe3_02
planeLockWeightLeft planeAlignerLeft
R_Leg01 R_Hip
R_Leg02 R_Leg01
R_Leg03 R_Leg02
R_Foot R_Leg03
planeAlignerRight R_Foot
R_Toe1_01 R_Foot
R_Toe2_01 R_Foot
R_Toe3_01 R_Foot
planeLockWeightRight planeAlignerRight
R_Toe1_02 R_Toe1_01
R_Toe1_03 R_Toe1_02
R_Toe2_02 R_Toe2_01
R_Toe2_03 R_Toe2_02
R_Toe3_02 R_Toe3_01
R_Toe3_03 R_Toe3_02
Rear_Leg02 Rear_Leg01
Rear_Leg03 Rear_Leg02
Rear_Leg04 Rear_Leg03
Rear_Foot Rear_Leg04
planeAlignerCenter Rear_Foot
Rear_Toe1_01 Rear_Foot
Rear_Toe2_01 Rear_Foot
Rear_Toe3_01 Rear_Foot
planeLockWeightCenter planeAlignerCenter
Rear_Toe1_02 Rear_Toe1_01
Rear_Toe1_03 Rear_Toe1_02
Rear_Toe2_02 Rear_Toe2_01
Rear_Toe2_03 Rear_Toe2_02
Rear_Toe3_02 Rear_Toe3_01
Rear_Toe3_03 Rear_Toe3_02
Back_Bone Spine1
Head Spine1
Motor_Bone Back_Bone
Ping_Mechanism Back_Bone
BN_LookIK Head
bottomMouth Head
L_Mouth01 Head
L_mouthFront Head
mouthGun Head
R_Mouth01 Head
R_mouthFront Head
TopMouth Head
weapon_bone Head
[BasePosition]
#SegmentName Tx, Ty, Tz, Rx, Ry, Rz, BoneLength
Pinger_Root 0.000000 0.000000 0.000000 -90.000000 0.000000 0.000000 10.000000 
Pelvis 0.000000 0.000000 0.000000 0.000000 0.000000 0.000000 10.000000 
L_Hip 0.000000 0.000000 0.000000 0.000000 0.000000 0.000000 10.000000 
R_Hip 0.000000 0.000000 0.000000 0.000000 0.000000 0.000000 10.000000 
Rear_Leg01 0.000000 0.000000 0.000000 0.000000 0.000000 0.000000 10.000000 
Spine1 0.000000 0.000000 0.000000 0.000000 0.000000 0.000000 10.000000 
L_Leg01 0.000000 0.000000 0.000000 0.000000 0.000000 0.000000 10.000000 
L_Leg02 0.000000 0.000000 0.000000 0.000000 0.000000 0.000000 10.000000 
L_Leg03 0.000000 0.000000 0.000000 0.000000 0.000000 0.000000 10.000000 
L_Foot 0.000000 0.000000 0.000000 0.000000 0.000000 0.000000 10.000000 
L_Toe1_01 0.000000 0.000000 0.000000 0.000000 0.000000 0.000000 10.000000 
L_Toe2_01 0.000000 0.000000 0.000000 0.000000 0.000000 0.000000 10.000000 
L_Toe3_01 0.000000 0.000000 0.000000 0.000000 0.000000 0.000000 10.000000 
planeAlignerLeft 0.000000 0.000000 0.000000 0.000000 0.000000 0.000000 10.000000 
L_Toe1_02 0.000000 0.000000 0.000000 0.000000 0.000000 0.000000 10.000000 
L_Toe1_03 0.000000 0.000000 0.000000 0.000000 0.000000 0.000000 10.000000 
L_Toe2_02 0.000000 0.000000 0.000000 0.000000 0.000000 0.000000 10.000000 
L_Toe2_03 0.000000 0.000000 0.000000 0.000000 0.000000 0.000000 10.000000 
L_Toe3_02 0.000000 0.000000 0.000000 0.000000 0.000000 0.000000 10.000000 
L_Toe3_03 0.000000 0.000000 0.000000 0.000000 0.000000 0.000000 10.000000 
planeLockWeightLeft 0.000000 0.000000 0.000000 0.000000 0.000000 0.000000 10.000000 
R_Leg01 0.000000 0.000000 0.000000 0.000000 0.000000 0.000000 10.000000 
R_Leg02 0.000000 0.000000 0.000000 0.000000 0.000000 0.000000 10.000000 
R_Leg03 0.000000 0.000000 0.000000 0.000000 0.000000 0.000000 10.000000 
R_Foot 0.000000 0.000000 0.000000 0.000000 0.000000 0.000000 10.000000 
planeAlignerRight 0.000000 0.000000 0.000000 0.000000 0.000000 0.000000 10.000000 
R_Toe1_01 0.000000 0.000000 0.000000 0.000000 0.000000 0.000000 10.000000 
R_Toe2_01 0.000000 0.000000 0.000000 0.000000 0.000000 0.000000 10.000000 
R_Toe3_01 0.000000 0.000000 0.000000 0.000000 0.000000 0.000000 10.000000 
planeLockWeightRight 0.000000 0.000000 0.000000 0.000000 0.000000 0.000000 10.000000 
R_Toe1_02 0.000000 0.000000 0.000000 0.000000 0.000000 0.000000 10.000000 
R_Toe1_03 0.000000 0.000000 0.000000 0.000000 0.000000 0.000000 10.000000 
R_Toe2_02 0.000000 0.000000 0.000000 0.000000 0.000000 0.000000 10.000000 
R_Toe2_03 0.000000 0.000000 0.000000 0.000000 0.000000 0.000000 10.000000 
R_Toe3_02 0.000000 0.000000 0.000000 0.000000 0.000000 0.000000 10.000000 
R_Toe3_03 0.000000 0.000000 0.000000 0.000000 0.000000 0.000000 10.000000 
Rear_Leg02 0.000000 0.000000 0.000000 0.000000 0.000000 0.000000 10.000000 
Rear_Leg03 0.000000 0.000000 0.000000 0.000000 0.000000 0.000000 10.000000 
Rear_Leg04 0.000000 0.000000 0.000000 0.000000 0.000000 0.000000 10.000000 
Rear_Foot 0.000000 0.000000 0.000000 0.000000 0.000000 0.000000 10.000000 
planeAlignerCenter 0.000000 0.000000 0.000000 0.000000 0.000000 0.000000 10.000000 
Rear_Toe1_01 0.000000 0.000000 0.000000 0.000000 0.000000 0.000000 10.000000 
Rear_Toe2_01 0.000000 0.000000 0.000000 0.000000 0.000000 0.000000 10.000000 
Rear_Toe3_01 0.000000 0.000000 0.000000 0.000000 0.000000 0.000000 10.000000 
planeLockWeightCenter 0.000000 0.000000 0.000000 0.000000 0.000000 0.000000 10.000000 
Rear_Toe1_02 0.000000 0.000000 0.000000 0.000000 0.000000 0.000000 10.000000 
Rear_Toe1_03 0.000000 0.000000 0.000000 0.000000 0.000000 0.000000 10.000000 
Rear_Toe2_02 0.000000 0.000000 0.000000 0.000000 0.000000 0.000000 10.000000 
Rear_Toe2_03 0.000000 0.000000 0.000000 0.000000 0.000000 0.000000 10.000000 
Rear_Toe3_02 0.000000 0.000000 0.000000 0.000000 0.000000 0.000000 10.000000 
Rear_Toe3_03 0.000000 0.000000 0.000000 0.000000 0.000000 0.000000 10.000000 
Back_Bone 0.000000 0.000000 0.000000 0.000000 0.000000 0.000000 10.000000 
Head 0.000000 0.000000 0.000000 0.000000 0.000000 0.000000 10.000000 
Motor_Bone 0.000000 0.000000 0.000000 0.000000 0.000000 0.000000 10.000000 
Ping_Mechanism 0.000000 0.000000 0.000000 0.000000 0.000000 0.000000 10.000000 
BN_LookIK 0.000000 0.000000 0.000000 0.000000 0.000000 0.000000 10.000000 
bottomMouth 0.000000 0.000000 0.000000 0.000000 0.000000 0.000000 10.000000 
L_Mouth01 0.000000 0.000000 0.000000 0.000000 0.000000 0.000000 10.000000 
L_mouthFront 0.000000 0.000000 0.000000 0.000000 0.000000 0.000000 10.000000 
mouthGun 0.000000 0.000000 0.000000 0.000000 0.000000 0.000000 10.000000 
R_Mouth01 0.000000 0.000000 0.000000 0.000000 0.000000 0.000000 10.000000 
R_mouthFront 0.000000 0.000000 0.000000 0.000000 0.000000 0.000000 10.000000 
TopMouth 0.000000 0.000000 0.000000 0.000000 0.000000 0.000000 10.000000 
weapon_bone 0.000000 0.000000 0.000000 0.000000 0.000000 0.000000 10.000000 
#Beginning of Data. Separated by tabs
#Fr	Tx	Ty	Tz	Rx	Ry	Rz	SF
[Pinger_Root]
61 -0.000020 2500.000000 0.000000 -0.000075 -0.000000 -0.000020 2500.000000
62 -0.000020 2500.000000 0.000000 -0.000075 -0.000000 -0.000020 2500.000000
63 -0.000020 2500.000000 0.000000 -0.000075 -0.000000 -0.000020 2500.000000
[Pelvis]
61 183.966019 927.589233 4109.575195 -73.273605 -71.269333 71.530800 4216.974609
62 169.507050 913.035339 4137.065430 -73.881958 -70.391212 71.840050 4240.008789
63 155.880661 902.397461 4168.567871 -74.361664 -70.022011 72.027344 4267.970703
[L_Hip]
61 5.766392 125.831482 872.656799 160.551178 -62.216816 114.300819 881.701050
62 5.766392 125.831482 872.656799 160.318451 -60.916340 114.989136 881.701050
63 5.766392 125.831482 872.656799 160.125854 -59.615810 115.639626 881.701050
[R_Hip]
61 5.765438 125.836372 -872.654907 34.209644 65.178818 121.319923 881.699829
62 5.765438 125.836372 -872.654907 34.815559 64.001862 121.877022 881.699829
63 5.765438 125.836372 -872.654907 35.371861 62.822960 122.384315 881.699829
[Rear_Leg01]
61 -192.298416 -925.602966 -0.001907 179.664337 3.801207 -162.591766 945.367432
62 -192.298416 -925.602966 -0.001907 -179.911057 4.283685 -159.508865 945.367432
63 -192.298416 -925.602966 -0.001907 -179.911163 4.671799 -158.645035 945.367432
[Spine1]
61 290.604584 5.007505 0.000477 -0.590698 -4.948206 7.308176 290.647736
62 290.604584 5.007505 0.000477 -0.221201 -5.079680 6.247338 290.647736
63 290.604584 5.007505 0.000477 0.149869 -5.090558 5.693089 290.647736
[L_Leg01]
61 761.932007 -0.002384 -0.069261 20.203247 -38.314342 -21.026440 761.932068
62 761.932007 -0.002384 -0.069261 18.745192 -37.525982 -19.479456 761.932068
63 761.932007 -0.002384 -0.069261 17.678553 -36.619736 -18.255234 761.932068
[L_Leg02]
61 1441.140503 -0.000954 -0.000715 2.357697 -0.077946 -118.972649 1441.140503
62 1441.140503 -0.000954 -0.000715 2.323144 -0.077473 -118.318916 1441.140503
63 1441.140503 -0.000954 -0.000715 2.288597 -0.076606 -117.665131 1441.140503
[L_Leg03]
61 1686.963989 -0.000715 -0.000954 -0.042942 0.019441 121.651611 1686.963989
62 1686.963989 -0.000715 -0.000954 -0.042928 0.019472 121.735146 1686.963989
63 1686.963989 -0.000715 -0.000954 -0.042914 0.019504 121.818649 1686.963989
[L_Foot]
61 3041.570068 -30.715107 11.297464 -1.657765 9.334937 43.049690 3041.746094
62 3041.570068 -30.715107 11.297464 -1.084998 9.620304 43.147705 3041.746094
63 3041.570068 -30.715107 11.297464 -0.634558 9.919314 43.465672 3041.746094
[L_Toe1_01]
61 -188.216690 -224.732346 -21.137953 91.805313 -5.165139 -169.795410 293.899567
62 -188.216690 -224.732346 -21.137953 91.981529 -5.305459 -170.343765 293.899567
63 -188.216690 -224.732346 -21.137953 92.159119 -5.444087 -170.892624 293.899567
[L_Toe2_01]
61 200.746536 -219.926590 148.838394 -85.896584 -21.090517 -44.092861 332.896027
62 200.746536 -219.926590 148.838394 -86.262589 -21.492043 -44.607170 332.896027
63 200.746536 -219.926590 148.838394 -86.625771 -21.896688 -45.120247 332.896027
[L_Toe3_01]
61 188.832520 -219.859131 -191.078659 -103.026817 21.499716 -53.476276 347.140900
62 188.832520 -219.859131 -191.078659 -102.722305 20.882483 -54.212959 347.140900
63 188.832520 -219.859131 -191.078659 -102.534409 20.345774 -55.152294 347.140900
[planeAlignerLeft]
61 61.587620 -530.617371 43.992325 169.360596 -82.652069 94.811905 535.988037
62 60.869617 -532.440796 48.361759 169.412537 -82.191940 94.403969 538.086548
63 60.151615 -534.264221 52.731190 169.438812 -81.731644 94.021347 540.219421
[L_Toe1_02]
61 413.761139 0.000477 0.000000 0.001385 -25.870834 0.001385 413.761139
62 413.761139 0.000477 0.000000 0.001385 -25.884359 0.001385 413.761139
63 413.761139 0.000477 0.000000 0.001385 -25.897896 0.001385 413.761139
[L_Toe1_03]
61 464.317322 0.000358 -0.000089 0.004053 56.334515 0.004053 464.317322
62 464.317322 0.000358 -0.000089 0.004072 56.500282 0.004072 464.317322
63 464.317322 0.000358 -0.000089 0.004092 56.666050 0.004092 464.317322
[L_Toe2_02]
61 342.235809 -0.000477 0.000238 0.001184 -75.089615 0.001184 342.235809
62 342.235809 -0.000477 0.000238 0.001184 -74.938026 0.001184 342.235809
63 342.235809 -0.000477 0.000238 0.001184 -74.786423 0.001184 342.235809
[L_Toe2_03]
61 420.210846 -0.000715 0.000000 -179.980408 86.913391 -179.976913 420.210846
62 420.210846 -0.000715 0.000000 -179.976517 87.390076 -179.973007 420.210846
63 420.210846 -0.000715 0.000000 -179.970856 87.867233 -179.967361 420.210846
[L_Toe3_02]
61 329.270111 0.000954 0.000000 0.002651 -82.609840 0.002651 329.270111
62 329.270111 0.000954 0.000000 0.002467 -82.511375 0.002467 329.270111
63 329.270111 0.000954 0.000000 0.002283 -82.412865 0.002283 329.270111
[L_Toe3_03]
61 439.137451 -0.001907 0.000954 179.992493 67.948593 179.998901 439.137451
62 439.137451 -0.001907 0.000954 179.994614 68.475906 -179.999695 439.137451
63 439.137451 -0.001907 0.000954 179.996826 69.003212 -179.998184 439.137451
[planeLockWeightLeft]
61 1000.000244 0.000025 -0.000101 -0.011826 -0.004376 0.005620 1000.000244
62 1000.000244 0.000008 -0.000100 -0.011826 -0.004376 0.005620 1000.000244
63 1000.000244 -0.000008 -0.000100 -0.011826 -0.004376 0.005620 1000.000244
[R_Leg01]
61 761.455627 -0.001907 -0.000358 139.534973 -24.510406 26.504702 761.455688
62 761.455627 -0.001907 -0.000358 139.970413 -24.385199 24.890257 761.455688
63 761.455627 -0.001907 -0.000358 139.945801 -24.082949 23.719191 761.455688
[R_Leg02]
61 1441.140625 0.000000 -0.000238 -2.684389 -1.403452 -145.637070 1441.140625
62 1441.140625 0.000000 -0.000238 -2.612857 -1.293657 -143.600754 1441.140625
63 1441.140625 0.000000 -0.000238 -2.537395 -1.186371 -141.562439 1441.140625
[R_Leg03]
61 1686.963989 0.000954 0.001431 0.131400 -0.085643 145.958084 1686.963989
62 1686.963989 0.000954 0.001431 0.128396 -0.082631 145.014801 1686.963989
63 1686.963989 0.000954 0.001431 0.125342 -0.079669 144.071320 1686.963989
[R_Foot]
61 3041.560059 -30.531288 -11.204481 -2.685354 -11.363444 61.403591 3041.734131
62 3041.560059 -30.531288 -11.204481 -2.897243 -11.965557 60.614475 3041.734131
63 3041.560059 -30.531288 -11.204481 -3.101088 -12.570473 59.825832 3041.734131
[planeAlignerRight]
61 -119.658035 -594.004395 -294.214722 -36.679607 -72.540749 -63.622173 673.588623
62 -123.708061 -583.340637 -304.287872 -36.629021 -72.011261 -63.945965 669.463318
63 -126.258163 -576.449768 -310.668732 -36.589207 -71.481644 -64.259224 666.896179
[R_Toe1_01]
61 -188.383347 -224.864899 21.052242 76.147919 -0.779272 -171.029419 294.101532
62 -188.383347 -224.864899 21.052242 75.548164 -0.671452 -171.986252 294.101532
63 -188.383347 -224.864899 21.052242 75.290047 -0.600495 -172.507614 294.101532
[R_Toe2_01]
61 200.637817 -220.002121 -148.787384 -96.093964 29.301464 -58.920448 332.857574
62 200.637817 -220.002121 -148.787384 -95.730797 30.574785 -59.016113 332.857574
63 200.637817 -220.002121 -148.787384 -95.388206 31.425035 -59.081814 332.857574
[R_Toe3_01]
61 188.606735 -220.092957 191.126343 -69.800903 -9.385196 -73.385887 347.192566
62 188.606735 -220.092957 191.126343 -70.289040 -8.376214 -73.441040 347.192566
63 188.606735 -220.092957 191.126343 -70.634361 -7.834838 -73.476433 347.192566
[planeLockWeightRight]
61 1000.000000 0.000305 -0.000435 -0.011823 -0.004379 -0.000027 1000.000000
62 1000.000000 0.000305 -0.000435 -0.011823 -0.004379 -0.000027 1000.000000
63 1000.000000 0.000305 -0.000436 -0.011823 -0.004379 -0.000027 1000.000000
[R_Toe1_02]
61 413.762085 0.000477 -0.000119 0.001393 -24.846685 0.001393 413.762085
62 413.762085 0.000477 -0.000119 0.001393 -24.758144 0.001393 413.762085
63 413.762085 0.000477 -0.000119 0.001394 -24.669609 0.001394 413.762085
[R_Toe1_03]
61 464.317810 0.000000 0.001088 0.006426 68.954712 0.006426 464.317810
62 464.317810 0.000000 0.001088 0.006516 69.246933 0.006516 464.317810
63 464.317810 0.000000 0.001088 0.006608 69.539154 0.006608 464.317810
[R_Toe2_02]
61 342.234741 -0.000954 0.000238 0.001198 -66.912895 0.001198 342.234741
62 342.234741 -0.000954 0.000238 0.001198 -66.989967 0.001198 342.234741
63 342.234741 -0.000954 0.000238 0.001198 -67.067078 0.001198 342.234741
[R_Toe2_03]
61 420.210846 0.000715 -0.000268 0.008104 73.346680 0.008104 420.210846
62 420.210846 0.000715 -0.000268 0.008116 73.370293 0.008116 420.210846
63 420.210846 0.000715 -0.000268 0.008127 73.393860 0.008127 420.210846
[R_Toe3_02]
61 329.270355 -0.000477 -0.000954 0.001186 -73.660393 0.001186 329.270355
62 329.270355 -0.000477 -0.000954 0.001185 -74.046043 0.001185 329.270355
63 329.270355 -0.000477 -0.000954 0.001185 -74.431648 0.001185 329.270355
[R_Toe3_03]
61 439.137939 0.000238 0.001431 0.016082 81.629845 0.016082 439.137939
62 439.137939 0.000238 0.001431 0.003622 82.365829 0.005375 439.137939
63 439.137939 0.000238 0.001431 -0.011304 83.101837 -0.007801 439.137939
[Rear_Leg02]
61 1162.777710 -0.029802 0.005960 0.691609 9.025165 -96.277359 1162.777710
62 1162.777710 -0.029802 0.005960 0.560927 5.868506 -89.987724 1162.777710
63 1162.777710 -0.029802 0.005960 0.377698 3.207652 -86.886040 1162.777710
[Rear_Leg03]
61 607.192505 -0.013351 -0.073195 0.006571 -0.001789 58.665676 607.192505
62 607.192505 -0.013351 -0.073195 0.006577 -0.001768 58.297920 607.192505
63 607.192505 -0.013351 -0.073195 0.006583 -0.001746 57.930149 607.192505
[Rear_Leg04]
61 995.874512 -0.020504 -0.011921 -0.038455 -0.017691 47.695816 995.874573
62 995.874512 -0.020504 -0.011921 -0.037854 -0.016792 46.994701 995.874573
63 995.874512 -0.020504 -0.011921 -0.037263 -0.015886 46.293587 995.874573
[Rear_Foot]
61 3096.176270 -0.067472 -0.041425 65.546997 82.171272 -95.969292 3096.176270
62 3096.176270 -0.067472 -0.041425 71.493057 85.059776 -91.823364 3096.176270
63 3096.176270 -0.067472 -0.041425 85.613655 87.403389 -78.779366 3096.176270
[planeAlignerCenter]
61 -5.448786 -47.988903 -501.149780 7.044639 -0.001555 179.998245 503.471680
62 -5.784751 -57.578140 -507.383820 7.429684 -0.001550 179.998230 510.673126
63 -6.120715 -67.167374 -513.617981 7.814706 -0.001544 179.998230 518.027405
[Rear_Toe1_01]
61 0.653352 83.966492 -371.173737 0.307540 14.605255 90.744331 380.553192
62 0.653352 83.966492 -371.173737 0.326510 15.012312 90.773453 380.553192
63 0.653352 83.966492 -371.173737 0.350534 15.992124 90.793976 380.553192
[Rear_Toe2_01]
61 178.200760 -294.826019 -362.060547 -4.532211 25.460522 -66.542725 499.765686
62 178.200760 -294.826019 -362.060547 -4.870505 25.118856 -66.879059 499.765686
63 178.200760 -294.826019 -362.060547 -5.205647 24.775417 -67.212265 499.765686
[Rear_Toe3_01]
61 -153.359680 -308.780914 -362.060852 2.207836 24.610826 -112.357193 499.952881
62 -153.359680 -308.780914 -362.060852 2.355475 24.163399 -112.147820 499.952881
63 -153.359680 -308.780914 -362.060852 2.500809 23.715494 -111.940445 499.952881
[planeLockWeightCenter]
61 1000.000000 0.000305 -0.000194 -0.011814 -0.004373 -0.000015 1000.000000
62 1000.000000 0.000305 -0.000188 -0.011814 -0.004373 -0.000015 1000.000000
63 1000.000000 0.000305 -0.000181 -0.011814 -0.004373 -0.000015 1000.000000
[Rear_Toe1_02]
61 379.707825 0.194073 0.000477 -0.002647 -32.705631 -0.002647 379.707855
62 379.707825 0.194073 0.000477 -0.002648 -32.653454 -0.002648 379.707855
63 379.707825 0.194073 0.000477 -0.002648 -32.601299 -0.002648 379.707855
[Rear_Toe1_03]
61 500.129700 0.165701 0.000119 -179.945663 88.747269 -179.949158 500.129761
62 500.129700 0.165701 0.000119 -179.970535 87.622978 -179.974045 500.129761
63 500.129700 0.165701 0.000119 -179.976624 86.955345 -179.980118 500.129761
[Rear_Toe2_02]
61 340.494507 0.000238 -0.000954 0.001196 -67.998070 0.001196 340.494507
62 340.494507 0.000238 -0.000954 0.001198 -66.833549 0.001198 340.494507
63 340.494507 0.000238 -0.000954 0.001201 -65.669075 0.001201 340.494507
[Rear_Toe2_03]
61 433.103577 0.000000 0.000238 0.005907 67.071167 0.005907 433.103546
62 433.103577 0.000000 0.000238 0.005506 65.370827 0.005506 433.103546
63 433.103577 0.000000 0.000238 0.005156 63.670135 0.005156 433.103546
[Rear_Toe3_02]
61 340.494141 -0.000358 -0.000477 0.004738 -63.755993 -0.006816 340.494171
62 340.494141 -0.000358 -0.000477 0.002169 -62.368221 -0.005154 340.494171
63 340.494141 -0.000358 -0.000477 -0.000204 -60.980450 -0.003694 340.494171
[Rear_Toe3_03]
61 433.103577 0.001431 -0.000238 -0.000497 61.081890 -0.004110 433.103546
62 433.103577 0.001431 -0.000238 -0.000351 59.202045 -0.003982 433.103546
63 433.103577 0.001431 -0.000238 -0.000221 57.321182 -0.003870 433.103546
[Back_Bone]
61 1312.175781 -701.934692 0.000954 0.428202 -3.655688 -88.768021 1488.125488
62 1312.175781 -701.934692 0.000954 0.024230 -3.655664 -88.521950 1488.125488
63 1312.175781 -701.934692 0.000954 -0.379731 -3.653908 -88.275894 1488.125488
[Head]
61 1406.159424 809.709290 0.001431 0.834526 -0.239505 6.911471 1622.625488
62 1406.159424 809.709290 0.001431 0.777750 -0.322587 6.971094 1622.625488
63 1406.159424 809.709290 0.001431 0.720887 -0.405609 7.030799 1622.625488
[Motor_Bone]
61 1158.364380 -417.834747 0.000477 -1.960025 -0.663914 -106.649643 1231.419434
62 1158.364380 -417.834747 0.000477 -1.845121 -0.485023 -106.470421 1231.419434
63 1158.364380 -417.834747 0.000477 -1.729661 -0.306494 -106.290825 1231.419434
[Ping_Mechanism]
61 1304.237061 -457.564667 23.130421 0.000103 -0.000053 82.120995 1382.365601
62 1306.758301 -458.238495 23.184006 0.000103 -0.000053 82.120995 1384.968262
63 1309.279541 -458.912323 23.237556 0.000103 -0.000053 82.120995 1387.571045
[BN_LookIK]
61 193.241119 1380.371704 -0.002861 0.000000 89.965736 -31.038179 1393.832153
62 193.241119 1380.371704 -0.002861 0.000000 89.965736 -31.038179 1393.832153
63 193.241119 1380.371704 -0.002861 0.000000 89.965736 -31.038179 1393.832153
[bottomMouth]
61 -435.092926 615.759399 -0.000954 -0.000022 0.000016 73.527184 753.966492
62 -435.092926 615.759399 -0.000954 -0.000022 0.000016 73.527184 753.966492
63 -435.092926 615.759399 -0.000954 -0.000022 0.000016 73.527184 753.966492
[L_Mouth01]
61 554.440979 7.658243 838.222046 150.204178 23.759130 109.605339 1005.027161
62 554.440979 7.658243 838.222046 150.204178 23.759130 109.605339 1005.027161
63 554.440979 7.658243 838.222046 150.204178 23.759130 109.605339 1005.027161
[L_mouthFront]
61 551.629089 934.514771 339.150421 0.000081 2.804060 79.119301 1136.941284
62 551.629089 934.514771 339.150421 0.000081 2.804060 79.119301 1136.941284
63 551.629089 934.514771 339.150421 0.000081 2.804060 79.119301 1136.941284
[mouthGun]
61 55.332661 1627.420898 0.000000 0.000023 0.000009 -11.038128 1628.361328
62 55.332661 1627.420898 0.000000 0.000023 0.000009 -11.038128 1628.361328
63 55.332661 1627.420898 0.000000 0.000023 0.000009 -11.038128 1628.361328
[R_Mouth01]
61 554.442383 7.659197 -838.223938 29.795891 -23.759109 109.605331 1005.029541
62 554.442383 7.659197 -838.223938 29.795891 -23.759109 109.605331 1005.029541
63 554.442383 7.659197 -838.223938 29.795891 -23.759109 109.605331 1005.029541
[R_mouthFront]
61 551.629089 934.514282 -339.151367 0.000029 -2.803930 79.119133 1136.941162
62 551.629089 934.514282 -339.151367 0.000029 -2.803930 79.119133 1136.941162
63 551.629089 934.514282 -339.151367 0.000029 -2.803930 79.119133 1136.941162
[TopMouth]
61 461.269867 -56.106091 -0.008583 -0.000059 -0.000268 92.025169 464.669525
62 461.269867 -56.106091 -0.008583 -0.000059 -0.000268 92.025169 464.669525
63 461.269867 -56.106091 -0.008583 -0.000059 -0.000268 92.025169 464.669525
[weapon_bone]
61 -987.239868 1448.372803 0.001431 0.000000 89.965736 -31.038221 1752.833740
62 -987.239868 1448.372803 0.001431 0.000000 89.965736 -31.038221 1752.833740
63 -987.239868 1448.372803 0.001431 0.000000 89.965736 -31.038221 1752.833740
